<?xml version="1.0" encoding="UTF-8" standalone="no"?>
<!DOCTYPE svg PUBLIC "-//W3C//DTD SVG 1.1//EN" "http://www.w3.org/Graphics/SVG/1.1/DTD/svg11.dtd">
<svg version="1.1" xmlns="http://www.w3.org/2000/svg" xmlns:xlink="http://www.w3.org/1999/xlink" preserveAspectRatio="xMidYMid meet" viewBox="0 0 640 640" width="200" height="200"><defs><path d="M289.18 323.77C286.31 325.19 284.52 326.08 283.8 326.43C280.11 328.26 276.24 329.71 272.26 330.75C271.87 330.86 273.28 330.49 272.03 330.81C270.94 331.1 269.77 330.89 268.84 330.23C267.95 329.6 267.49 328.52 267.46 326.99C267.4 323.47 270.45 319.14 272.81 316.1C273.13 315.68 277.47 310.04 285.81 299.17C281.2 299.74 278.32 300.1 277.16 300.24C274.43 300.58 271.68 299.87 269.46 298.25C268.99 297.9 267.8 297.04 265.91 295.65C262.23 302.66 256.41 310.31 248.44 318.63C244.51 322.73 235.34 331.22 220.92 344.12C220.17 344.79 219.09 343.81 219.69 343C219.82 342.82 220.16 342.37 220.69 341.65L229.9 334.42" id="j4aCRHrxnY"></path><path d="M287.97 325.67C295.59 318.22 298.49 315.05 296.65 316.17C295.92 316.61 294.34 317.59 291.89 319.09C287.11 322.04 282.05 324.53 276.8 326.53C275.68 326.95 276.04 326.82 273.87 327.64C272.9 328.01 271.96 327.01 272.4 326.06C272.75 325.3 272.57 325.7 272.91 324.96C273.74 323.16 274.72 321.44 275.85 319.82C277.13 317.99 276.65 318.67 277.28 317.78C277.28 317.78 287.81 304.03 287.81 304.03C288.86 302.78 290.42 300.92 292.47 298.48C292.81 298.07 292.81 297.48 292.45 297.08C292.19 296.78 292.13 296.71 291.89 296.45C291.43 295.92 290.73 295.68 290.04 295.8C286.62 296.39 282.4 297.13 280.22 297.51C275.76 298.28 271.25 296.51 268.51 292.91C267.92 292.13 268.22 292.52 267.03 290.96C266.36 290.08 265 290.22 264.52 291.22C263.9 292.53 264.53 291.19 264.28 291.73C262.38 295.74 260 299.51 257.2 302.96C253.44 307.59 254.72 306.02 253.05 308.08C243.32 320.06 232.17 330.8 219.83 340.07C219.79 340.1 219.69 340.18 219.52 340.31L219.98 343.02" id="c1Kqi4qYrU"></path><clipPath id="clipaWek8fsh9"><use xlink:href="#c1Kqi4qYrU" opacity="1"></use></clipPath><path d="M311.91 327.86C311.91 327.86 311.91 327.86 311.91 327.86C307.96 327.45 304.21 325.94 301.07 323.5C300.08 322.73 299.71 322.44 298.18 321.25C297.03 320.36 295.39 320.52 294.45 321.62C294.16 321.96 294.79 321.23 294.45 321.62C293.48 322.75 292.6 323.96 291.84 325.24C291.27 326.19 291.06 326.55 290.57 327.36C289.92 328.45 288.31 328.33 287.83 327.15C287.8 327.06 287.71 326.85 287.57 326.51L298.27 315.76C301.5 311.28 303.51 308.48 304.31 307.36C304.31 307.36 314.73 294.58 314.73 294.58C317.07 292.04 317.2 291.89 319.22 289.7C324 284.51 329.16 279.68 334.65 275.24C335.39 274.64 334.3 275.52 336.27 273.92C337.3 273.09 338.85 273.49 339.35 274.72C340 276.33 337.53 280.09 331.93 285.99C329.89 288.14 326.07 291.72 320.46 296.74C320.46 296.74 294.64 319.18 294.64 319.18C293.98 319.73 292.35 321.11 289.74 323.32" id="e3BKjsRfu"></path><path d="M307.31 325.99C307.68 325.28 308.46 324.89 309.25 325.01C311.18 325.31 312.45 325.48 313.06 325.54C319.43 326.17 328.23 325.01 328.23 325.01C328.5 324.96 329.62 324.73 331.6 324.32C334.14 323.8 336.64 323.08 339.07 322.17C340.7 321.57 338.34 322.45 339.07 322.17C344.49 320.15 349.71 317.62 354.64 314.61C355.52 314.07 353.16 315.51 354.64 314.61C357.55 312.83 360.24 310.72 362.65 308.31C363.4 307.56 360.21 310.75 360.5 310.46C364.42 306.54 367.66 301.99 370.09 297.01C371 295.16 369.36 298.52 370.09 297.01C373.1 290.85 375.3 284.33 376.65 277.61C377 275.84 376.36 279.03 376.8 276.85C377.88 271.46 378.42 265.96 378.42 260.46C378.42 258.91 378.42 259.52 378.42 257.22C378.42 254.22 378.21 251.22 377.78 248.24C377.63 247.18 377.91 249.14 377.78 248.24C377.28 244.72 376.38 241.26 375.11 237.93C374.72 236.91 375.22 238.23 374.77 237.06C373.71 234.27 372.3 231.62 370.57 229.19C369.74 228.02 370.01 228.4 369.22 227.28C367.4 224.72 364.81 222.8 361.83 221.81C360.59 221.39 362.75 222.11 361.83 221.81C357.74 220.44 353.4 220.02 349.13 220.56C345.96 220.97 345.3 221.05 342.72 221.38C336.44 222.18 330.27 223.69 324.33 225.87C323.19 226.29 320.36 227.33 315.82 229C312.24 230.52 310.01 231.47 309.11 231.85C299.2 236.06 289.65 241.08 280.56 246.85C275.05 250.35 272.12 252.21 266.59 255.72C257.57 261.45 249.14 268.07 241.44 275.48C240.99 275.92 239.87 277 238.07 278.73C233.1 284.29 229.99 287.77 228.74 289.16C222.97 295.63 218 302.76 213.94 310.41C213.27 311.66 215 308.41 213.74 310.79C213.74 310.79 208.34 322.89 208.34 322.89C207.4 325.48 208.57 322.26 208.06 323.66C205.14 331.64 204.21 340.21 205.35 348.63C205.57 350.29 205.34 348.55 205.76 351.73C206.22 355.13 207.52 358.36 209.53 361.14C210.87 362.98 209.09 360.52 209.74 361.42C213.99 367.27 219.65 371.94 226.2 375.01C227.36 375.56 225.85 374.85 228.26 375.97C230.76 377.15 233.39 378.01 236.09 378.55C238.15 378.96 235.28 378.39 236.09 378.55C242.91 379.91 249.88 380.31 256.8 379.75C258.28 379.63 255.85 379.83 258.22 379.63C262.17 379.31 266.09 378.6 269.9 377.5C273.08 376.59 268.75 377.83 269.9 377.5C280.49 374.47 290.75 370.4 300.55 365.37C301.5 364.88 303.85 363.67 307.62 361.74C304.02 364.48 300.76 366.87 297.82 368.9C297.82 368.9 297.82 368.9 297.82 368.9C292.07 372.25 285.99 374.98 279.67 377.06C279.01 377.28 278.61 377.41 278.47 377.45C276.44 378.07 272.66 379.05 270.73 379.72C269.77 380.05 266.43 380.77 260.72 381.86C255.6 382.84 250.39 383.23 245.19 383.02C243.98 382.97 246.75 383.08 245.19 383.02C241.18 382.86 237.2 382.28 233.31 381.3C231.29 380.78 234.48 381.59 233.31 381.3C226.65 379.61 220.39 376.61 214.89 372.49C213.04 371.1 216.56 373.74 214.89 372.49C208.89 367.99 204.6 361.58 202.73 354.31C202.48 353.32 203.31 356.56 202.73 354.31C201.89 351.03 201.44 347.65 201.38 344.25C201.37 343.35 201.39 344.57 201.37 343.38C201.33 340.96 201.57 338.56 202.08 336.2C202.96 332.13 201.93 336.91 202.08 336.2C204.97 322.75 210.41 309.98 218.11 298.58C219.57 296.41 216.18 301.44 218.6 297.84C223.14 291.12 228.33 284.87 234.1 279.18C237.77 275.57 233.9 279.38 236.02 277.29C246.92 266.55 258.96 257.03 271.91 248.89C276.99 245.7 268.78 250.86 272.87 248.29C289.12 238.08 306.38 229.59 324.39 222.95C327.43 221.83 320.51 224.38 326.31 222.24C335.11 218.99 344.39 217.19 353.77 216.9C354.82 216.87 350.93 216.99 353.77 216.9C357.22 216.79 360.66 217.49 363.8 218.93C360.61 217.47 361.65 217.94 366.91 220.36C367.79 220.76 368.97 221.75 370.44 223.31C371.59 224.54 372.61 225.88 373.49 227.32C375.51 230.64 373.22 226.88 373.49 227.32C380.08 238.13 383.13 250.72 382.22 263.35C382.06 265.59 382.19 263.9 381.83 268.9C381.56 272.65 380.96 276.37 380.03 280.02C379.43 282.4 381.18 275.47 381.12 275.71C378.4 286.47 374.14 296.78 368.46 306.33C368.2 306.78 370.18 303.45 368.46 306.33C367.57 307.83 366.51 309.23 365.31 310.5C364.82 311.02 365.04 310.78 364.52 311.33C363.4 312.52 362.18 313.63 360.9 314.64C360.16 315.22 361.28 314.34 360.9 314.64C358.45 316.57 355.83 318.27 353.08 319.71C351.47 320.56 353.91 319.28 353.08 319.71C347.72 322.54 342.13 324.9 336.37 326.8C334.46 327.43 338.1 326.23 336.37 326.8C330.03 328.88 323.44 330.1 316.78 330.43C315.56 330.49 317.3 330.41 314.92 330.53C312.11 330.66 309.31 330.22 306.69 329.21C306.52 329.14 307.49 329.51 306.69 329.21C306.22 329.03 306.01 328.48 306.25 328.03C306.58 327.38 307.01 326.57 307.31 325.99Z" id="dXKB2mCQh"></path><clipPath id="clipb2ItgVhb4"><use xlink:href="#dXKB2mCQh" opacity="1"></use></clipPath><path d="M327.36 327.05L317.98 328.11L311.36 328.02" id="a7bPq9xs1"></path></defs><g><g><g><g><use xlink:href="#j4aCRHrxnY" opacity="1" fill-opacity="0" stroke="#000000" stroke-width="4" stroke-opacity="1"></use></g></g><g><g clip-path="url(#clipaWek8fsh9)"><use xlink:href="#c1Kqi4qYrU" opacity="1" fill-opacity="0" stroke="#000000" stroke-width="6" stroke-opacity="1"></use></g></g><g><g><use xlink:href="#e3BKjsRfu" opacity="1" fill-opacity="0" stroke="#000000" stroke-width="5" stroke-opacity="1"></use></g></g><g><g clip-path="url(#clipb2ItgVhb4)"><use xlink:href="#dXKB2mCQh" opacity="1" fill-opacity="0" stroke="#000000" stroke-width="4" stroke-opacity="1"></use></g></g><g><g><use xlink:href="#a7bPq9xs1" opacity="1" fill-opacity="0" stroke="#000000" stroke-width="4" stroke-opacity="1"></use></g></g></g></g></svg>